<?xml version="1.0" standalone="no"?>
<!DOCTYPE svg PUBLIC "-//W3C//DTD SVG 20010904//EN"
 "http://www.w3.org/TR/2001/REC-SVG-20010904/DTD/svg10.dtd">
<svg version="1.0" xmlns="http://www.w3.org/2000/svg"
 width="806.000000pt" height="806.000000pt" viewBox="0 0 806.000000 806.000000"
 preserveAspectRatio="xMidYMid meet">
<metadata>
Created by potrace 1.14, written by Peter Selinger 2001-2017
</metadata>
<g transform="translate(0.000000,806.000000) scale(0.100000,-0.100000)"
fill="#000000" stroke="none">
<path d="M6154 7338 c-45 -47 -196 -219 -608 -693 -397 -456 -525 -610 -542
-651 -37 -88 -5 -303 81 -553 14 -41 25 -84 25 -96 0 -16 -56 -76 -186 -201
-103 -99 -198 -190 -213 -203 -28 -25 -116 -109 -278 -264 l-101 -97 -316 0
-317 0 -72 67 c-40 37 -77 72 -83 78 -6 5 -78 73 -160 150 -82 77 -218 208
-301 290 l-153 150 24 50 c36 75 49 153 37 218 -24 132 -107 267 -229 375 -66
58 -461 386 -886 737 -121 99 -277 229 -348 288 -70 60 -128 105 -128 102 0
-4 62 -71 139 -148 76 -78 239 -250 362 -382 122 -132 314 -337 425 -455 261
-278 281 -303 294 -351 19 -70 -14 -156 -85 -217 -106 -93 -199 -89 -307 13
-29 28 -116 108 -193 180 -77 71 -169 157 -205 191 -36 34 -96 90 -135 125
-75 69 -135 125 -402 378 -280 264 -261 233 202 -324 50 -60 214 -258 364
-440 339 -409 377 -447 526 -517 111 -52 276 -48 363 9 21 13 26 13 44 -4 28
-24 256 -259 348 -358 41 -44 97 -104 124 -132 27 -29 47 -56 43 -59 -10 -10
-3 -10 -997 -12 l-929 -2 17 -30 17 -30 2474 0 2473 0 -5 22 c-4 16 -3 18 6 9
6 -6 23 -11 37 -11 14 0 31 -5 37 -11 6 -6 28 -9 49 -7 35 3 39 5 36 28 -2 14
-5 26 -6 27 -1 2 -394 3 -872 3 -478 1 -885 4 -904 8 l-35 8 112 120 c61 66
188 199 281 295 l169 173 124 -38 c68 -21 138 -42 154 -48 48 -15 236 -48 275
-48 101 0 134 22 505 345 76 66 172 149 214 185 87 74 230 199 554 483 174
152 227 205 227 223 0 36 -49 162 -92 239 -192 340 -637 745 -918 838 -100 33
-100 33 -156 -25z m116 -278 c22 -12 39 -58 31 -86 -3 -12 -31 -49 -61 -82
-30 -33 -91 -102 -135 -153 -44 -51 -89 -102 -101 -113 -18 -18 -152 -169
-512 -576 -117 -132 -137 -150 -169 -150 -36 0 -73 33 -73 64 0 26 -16 7 360
431 151 170 304 344 339 385 114 134 268 290 285 290 10 0 26 -4 36 -10z m241
-240 c25 -14 25 -65 0 -105 -17 -27 -78 -94 -345 -375 -45 -47 -146 -155 -226
-240 -80 -85 -199 -211 -266 -279 -107 -110 -125 -124 -153 -123 -44 1 -61 18
-61 60 0 41 3 44 345 402 55 58 147 155 205 216 58 60 177 187 265 282 168
180 182 190 236 162z m245 -256 c51 -50 57 -43 -476 -554 -140 -134 -302 -290
-360 -347 -132 -127 -176 -163 -206 -163 -32 0 -64 34 -64 68 0 29 71 102 506
517 115 110 265 255 334 322 200 195 218 205 266 157z m236 -231 c10 -9 18
-30 18 -48 0 -27 -12 -43 -73 -101 -99 -93 -210 -193 -418 -375 -96 -85 -254
-224 -350 -309 -250 -223 -249 -222 -296 -178 -53 50 -35 73 262 335 88 78
268 237 400 355 364 323 382 338 412 338 15 0 35 -7 45 -17z"/>
<path d="M3864 6703 c26 -112 16 -214 -32 -327 -20 -46 -27 -55 -32 -40 -15
41 -119 -156 -166 -313 -22 -71 -27 -110 -28 -203 -1 -107 1 -119 27 -170 15
-30 40 -69 55 -86 33 -36 101 -89 106 -83 3 2 -2 31 -9 64 -14 60 -15 111 -4
130 4 6 9 24 13 40 4 17 30 74 57 127 37 74 49 108 49 143 0 25 5 45 10 45 24
0 100 -109 100 -142 0 -9 57 -129 65 -136 5 -5 21 12 63 66 19 23 37 42 42 42
4 0 8 -25 8 -56 0 -34 6 -62 15 -72 20 -23 56 -96 60 -121 2 -11 6 -24 10 -27
4 -4 3 -12 -2 -18 -12 -16 -20 -66 -10 -71 4 -3 32 18 61 47 55 54 92 117 104
177 6 30 5 34 -11 28 -13 -6 -16 -3 -11 9 44 115 34 170 -71 404 -21 45 -42
119 -43 147 -1 52 -20 27 -41 -54 -16 -59 -32 -97 -52 -120 -63 -72 -87 -32
-98 165 -9 168 -13 189 -45 252 -32 64 -64 105 -115 145 -55 44 -84 47 -75 8z"/>
<path d="M1020 6673 c0 -5 9 -18 20 -28 11 -10 20 -14 20 -8 0 5 -9 18 -20 28
-11 10 -20 14 -20 8z"/>
<path d="M240 4550 l0 -30 441 0 440 0 -6 23 c-5 16 -4 18 3 8 6 -8 24 -14 41
-14 17 0 31 -4 31 -9 0 -4 20 -8 45 -8 43 0 45 1 45 30 l0 30 -520 0 -520 0 0
-30z"/>
<path d="M1300 4560 c0 -23 28 -40 64 -40 31 0 32 7 7 38 -25 28 -71 30 -71 2z"/>
<path d="M6540 4567 c0 -22 34 -47 63 -47 33 0 34 10 4 38 -26 24 -67 29 -67
9z"/>
<path d="M6620 4576 c0 -3 11 -16 24 -30 l23 -26 606 0 c542 0 605 2 611 16
18 46 46 44 -629 44 -349 0 -635 -2 -635 -4z"/>
<path d="M455 4069 c-33 -4 -75 -5 -92 -2 -92 15 -119 -50 -30 -72 15 -4 32
-15 37 -25 6 -11 10 -119 10 -251 l0 -232 -40 -37 c-41 -38 -48 -54 -29 -65
17 -11 296 -5 331 7 80 27 160 108 128 128 -9 5 -6 10 10 15 20 6 22 12 18 54
-3 28 -17 66 -38 98 l-33 52 25 48 c14 26 28 61 32 76 10 43 -11 102 -52 146
-30 33 -49 43 -102 55 -71 17 -85 17 -175 5z m153 -75 c16 -3 44 -19 61 -34
25 -24 31 -37 31 -70 0 -34 -6 -48 -31 -71 -29 -27 -36 -29 -119 -29 -114 0
-121 3 -109 43 5 18 9 53 9 78 0 50 8 60 55 77 36 12 62 14 103 6z m49 -316
c64 -39 82 -124 38 -177 -29 -34 -64 -47 -152 -56 -105 -11 -105 -12 -101 117
4 133 8 138 111 138 54 0 78 -5 104 -22z"/>
<path d="M2086 4038 c-10 -15 -16 -44 -16 -84 0 -69 -7 -78 -62 -88 -20 -4
-46 -14 -58 -24 l-21 -17 28 -27 c16 -15 48 -30 73 -35 l45 -9 -3 -54 c-2 -29
-7 -61 -12 -71 -13 -23 -13 -104 -1 -127 6 -9 12 -29 16 -44 3 -16 12 -28 20
-28 9 0 15 -10 16 -22 0 -13 13 -33 28 -45 27 -21 33 -22 107 -13 97 12 124
30 145 97 32 96 33 110 9 123 -18 10 -28 7 -62 -15 -35 -23 -39 -30 -34 -56 7
-35 -18 -52 -67 -47 -26 2 -36 10 -51 43 -21 42 -38 200 -26 245 9 36 63 61
131 59 60 -2 79 4 79 26 0 21 -13 26 -106 35 -101 10 -113 20 -115 95 -2 96
-29 132 -63 83z"/>
<path d="M1057 4030 c-57 -45 -41 -112 30 -126 65 -13 115 86 61 120 -42 26
-64 27 -91 6z"/>
<path d="M3970 4041 c-15 -4 -26 -15 -28 -29 -3 -18 1 -22 23 -22 14 0 28 -7
31 -15 4 -10 13 -13 25 -10 22 7 26 -10 5 -18 -11 -4 -13 -49 -9 -245 l3 -240
-37 -19 c-31 -15 -38 -23 -38 -48 l0 -30 105 3 c58 2 109 8 114 12 13 13 -2
60 -22 66 -45 14 -47 19 -52 118 -6 112 -8 110 100 111 125 1 205 67 217 179
5 50 4 54 -38 105 -58 71 -119 91 -269 90 -58 -1 -116 -4 -130 -8z m298 -81
c36 -22 62 -72 62 -118 0 -49 -48 -76 -152 -87 -64 -7 -67 -6 -83 19 -22 33
-27 172 -7 192 22 23 140 18 180 -6z"/>
<path d="M6250 4032 c-31 -25 -21 -49 24 -57 19 -4 40 -13 47 -21 7 -9 11 -88
12 -243 2 -250 1 -254 -57 -269 -35 -9 -47 -42 -24 -69 11 -13 28 -15 107 -9
98 6 129 19 118 50 -4 9 -20 19 -37 22 -44 9 -42 58 3 102 40 39 56 40 90 4
31 -33 54 -122 31 -122 -21 0 -17 -48 5 -60 11 -5 34 -10 53 -10 18 0 63 0
100 0 56 -1 68 2 77 18 7 14 7 27 -2 46 -11 23 -18 26 -62 26 l-50 0 -39 62
c-21 33 -52 76 -69 94 -37 43 -32 65 27 123 36 35 52 44 78 44 18 -1 50 3 71
9 36 8 38 11 32 36 -4 15 -9 29 -11 31 -4 4 -81 3 -187 -2 -44 -2 -58 -19 -47
-57 7 -25 2 -34 -56 -91 -41 -39 -68 -59 -74 -53 -5 5 -10 72 -11 149 -1 201
-6 234 -34 245 -55 21 -91 22 -115 2z"/>
<path d="M5863 4025 c-11 -8 -26 -28 -31 -44 -14 -39 14 -77 60 -83 26 -4 38
1 60 23 41 40 36 79 -13 104 -35 19 -49 19 -76 0z"/>
<path d="M1588 3863 c-39 -3 -52 -10 -82 -45 -40 -45 -44 -70 -22 -133 18 -51
46 -70 84 -57 20 7 34 6 48 -1 10 -6 40 -12 65 -13 48 -1 104 -26 122 -55 15
-24 1 -62 -32 -87 -24 -17 -46 -22 -105 -24 -67 -2 -78 0 -100 21 -14 13 -30
39 -36 57 -10 30 -44 54 -57 40 -9 -9 -3 -178 8 -198 9 -18 39 -26 39 -10 0 4
12 15 27 23 20 13 34 14 62 7 52 -15 170 -3 201 20 42 31 70 81 70 125 0 33
-7 46 -44 83 -46 47 -46 46 -178 48 -38 1 -54 7 -78 29 -16 16 -30 34 -30 41
0 18 48 68 59 62 5 -3 39 -10 76 -15 72 -10 95 -23 95 -52 0 -21 35 -43 56
-35 18 7 20 129 2 144 -20 15 -178 32 -250 25z"/>
<path d="M2805 3840 c-27 -10 -64 -24 -82 -31 -30 -12 -34 -11 -57 14 -25 26
-30 28 -93 23 -38 -3 -73 -5 -79 -5 -18 -1 -26 -32 -13 -47 7 -8 31 -14 60
-14 44 0 51 -3 59 -26 6 -14 10 -84 10 -155 0 -116 -2 -131 -20 -149 -12 -12
-33 -20 -54 -20 -36 0 -70 -24 -63 -44 2 -7 48 -12 135 -14 116 -2 132 0 132
14 0 11 5 14 18 9 31 -13 46 -10 50 9 2 11 0 16 -7 12 -7 -4 -11 1 -11 13 0
18 -6 21 -44 21 -25 0 -48 6 -53 13 -4 6 -9 44 -10 82 -2 54 2 80 18 115 26
54 96 110 139 110 27 0 30 -3 30 -33 0 -45 28 -70 72 -65 23 3 37 12 48 31 31
56 -40 158 -109 156 -14 0 -48 -9 -76 -19z"/>
<path d="M3250 3848 c-52 -10 -106 -41 -142 -83 -26 -31 -46 -103 -47 -177 -1
-58 2 -73 25 -108 15 -23 41 -48 58 -57 17 -8 40 -24 52 -34 31 -29 104 -47
164 -41 49 4 58 10 117 67 41 41 63 70 64 86 0 13 3 33 5 44 2 11 4 27 4 35 0
8 0 33 0 55 1 55 -36 132 -71 147 -15 7 -30 20 -32 29 -5 17 -87 50 -121 48
-12 -1 -46 -6 -76 -11z m157 -103 c28 -12 33 -20 45 -77 11 -49 20 -66 39 -75
23 -12 23 -13 3 -13 -21 0 -34 -17 -34 -45 0 -8 -21 -34 -47 -59 -43 -41 -53
-46 -96 -46 -53 0 -90 19 -139 74 -67 72 -41 214 46 252 35 15 131 9 183 -11z"/>
<path d="M4720 3853 c-165 -25 -230 -97 -233 -258 -2 -75 0 -84 26 -118 33
-43 125 -106 180 -123 22 -7 62 -10 92 -7 47 5 60 12 110 57 49 45 57 59 69
111 28 122 -1 242 -64 263 -17 6 -29 16 -28 23 7 28 -92 62 -152 52z m107
-109 c27 -11 34 -21 48 -71 9 -32 18 -64 20 -70 3 -7 12 -13 22 -14 14 0 13
-2 -4 -9 -14 -6 -23 -18 -23 -31 0 -13 -20 -42 -49 -70 -47 -47 -53 -49 -105
-49 -52 0 -57 2 -109 53 -47 44 -56 59 -61 99 -12 79 34 159 100 177 37 10
120 2 161 -15z"/>
<path d="M5350 3853 c-8 -3 -38 -23 -66 -44 -28 -22 -53 -39 -56 -39 -4 0 -11
14 -17 30 -11 33 -43 50 -96 50 -70 0 -81 -58 -15 -84 22 -9 41 -24 45 -37 4
-12 7 -79 7 -148 0 -108 -3 -127 -18 -138 -10 -7 -26 -13 -36 -13 -26 0 -40
-33 -24 -56 12 -15 30 -19 95 -22 110 -5 133 1 129 36 -2 18 -13 31 -33 42
-16 8 -32 16 -35 18 -6 4 -11 68 -10 131 1 68 17 98 75 146 52 42 131 60 151
34 22 -29 32 -89 22 -126 -6 -22 -7 -71 -3 -120 l7 -83 -34 0 c-75 0 -87 -51
-17 -70 43 -12 186 -3 195 12 3 5 3 20 0 34 -5 19 -13 24 -37 24 -18 0 -32 6
-36 16 -3 8 -12 13 -19 10 -18 -7 -18 11 0 21 18 10 24 220 8 277 -17 61 -60
98 -119 102 -26 2 -55 1 -63 -3z m-145 -264 c4 -6 5 -12 2 -15 -7 -7 -37 7
-37 17 0 13 27 11 35 -2z m315 -25 c0 -8 -4 -12 -10 -9 -5 3 -10 10 -10 16 0
5 5 9 10 9 6 0 10 -7 10 -16z"/>
<path d="M7649 3851 c-67 -21 -133 -76 -148 -125 -17 -57 -22 -144 -11 -188
38 -143 184 -223 317 -173 95 35 149 88 123 121 -16 18 -62 4 -104 -34 -37
-33 -41 -34 -98 -29 -67 6 -122 37 -151 86 -22 37 -22 57 1 67 9 5 85 9 167
10 83 0 159 5 169 11 41 23 7 157 -52 203 -64 51 -147 70 -213 51z m158 -96
c51 -23 53 -25 53 -64 l0 -41 -87 -2 c-187 -5 -223 3 -209 49 6 18 77 71 116
86 23 9 68 -1 127 -28z"/>
<path d="M7295 3837 c-14 -11 -26 -12 -43 -6 -45 17 -67 8 -77 -32 -6 -23 -3
-27 19 -33 15 -4 26 -14 27 -24 3 -43 -4 -89 -16 -117 -18 -41 -29 -78 -27
-91 1 -5 -11 -23 -28 -39 l-29 -28 -10 26 c-6 15 -18 52 -27 84 -9 32 -19 63
-23 68 -15 24 -29 79 -24 92 3 8 16 19 29 24 29 10 33 53 7 64 -29 11 -195 14
-215 4 -10 -5 -18 -21 -18 -35 0 -26 30 -44 75 -44 15 0 29 -9 36 -22 15 -27
64 -172 89 -262 11 -39 23 -72 28 -75 4 -3 12 -15 18 -26 9 -15 20 -19 45 -17
19 2 40 9 48 17 12 12 54 120 87 230 8 28 25 74 37 103 19 48 24 53 60 59 21
3 48 14 60 24 22 18 22 18 2 38 -27 26 -104 37 -130 18z"/>
<path d="M896 3819 c-8 -12 -12 -27 -9 -34 7 -19 73 -28 144 -20 38 4 64 3 72
-4 17 -13 18 -304 2 -320 -6 -6 -54 -12 -108 -14 -53 -2 -102 -8 -108 -14 -7
-7 -2 -19 16 -42 30 -35 77 -42 111 -16 11 8 42 14 74 15 31 0 82 10 117 22
l62 23 20 -21 c28 -31 91 -41 108 -18 19 27 17 31 -32 60 -40 23 -52 25 -99
20 -40 -5 -56 -4 -63 6 -4 7 -9 59 -9 116 -1 60 -7 108 -13 116 -9 10 -9 20 0
39 15 34 -3 80 -37 96 -14 6 -72 11 -129 11 -94 0 -105 -2 -119 -21z"/>
<path d="M5760 3833 c-50 -5 -70 -17 -70 -44 0 -30 94 -44 165 -26 20 5 36 3
48 -5 15 -11 17 -33 18 -167 0 -117 -3 -156 -13 -162 -7 -5 -52 -9 -100 -9
-128 0 -144 -12 -88 -65 29 -28 32 -29 73 -16 23 7 71 16 107 20 36 5 85 15
109 24 52 20 77 21 84 5 8 -21 86 -41 103 -27 46 38 -26 89 -125 89 -71 0 -68
-6 -75 140 -11 213 -9 201 -36 220 -27 19 -120 30 -200 23z"/>
<path d="M240 2860 l0 -29 1059 -3 c583 -2 1062 -6 1066 -10 4 -4 -19 -31 -51
-61 l-59 -55 189 -188 188 -189 64 69 c35 37 64 73 64 80 0 6 -72 83 -160 171
-88 88 -160 163 -160 167 0 5 22 8 50 8 l50 0 137 -135 c128 -127 156 -148
165 -126 2 5 21 29 43 53 23 24 67 75 99 113 32 39 67 78 78 88 19 16 79 17
950 17 l930 0 31 -33 c18 -18 68 -74 111 -125 43 -51 84 -92 90 -92 6 0 65 54
132 121 l120 120 55 -3 54 -3 -145 -148 c-80 -81 -146 -155 -147 -165 -2 -9
24 -46 56 -81 l59 -65 66 58 c36 32 122 117 192 189 l126 131 -44 37 c-23 21
-39 41 -35 46 5 4 508 9 1118 11 l1110 3 -3 27 -3 27 -3822 2 -3823 2 0 -29z"/>
<path d="M5614 2489 c-101 -101 -184 -190 -184 -198 0 -14 64 -91 180 -216 30
-33 86 -93 125 -135 144 -155 534 -540 640 -631 257 -222 497 -376 620 -397
148 -25 225 64 184 213 -17 61 -85 191 -146 280 -83 120 -151 204 -328 405
-53 60 -455 462 -525 524 -30 27 -84 77 -120 110 -93 87 -233 211 -248 220
-10 6 -69 -47 -198 -175z m362 -263 c21 -18 28 -32 28 -60 0 -76 -90 -110
-140 -52 -32 37 -30 71 5 107 36 35 70 37 107 5z m911 -908 c51 -47 12 -138
-58 -138 -69 0 -108 91 -59 140 28 28 87 27 117 -2z"/>
<path d="M2059 2529 c-453 -406 -819 -780 -989 -1011 -131 -177 -164 -227
-200 -298 -55 -109 -73 -181 -59 -234 21 -80 72 -111 166 -103 185 15 528 266
987 723 267 265 606 634 606 660 0 13 -364 374 -377 374 -5 0 -65 -50 -134
-111z m40 -310 c56 -20 70 -91 26 -134 -51 -52 -137 -15 -137 58 0 40 14 64
47 77 27 12 27 12 64 -1z m-885 -915 c28 -27 38 -55 31 -82 -11 -45 -34 -62
-81 -62 -34 0 -47 5 -63 26 -28 36 -27 79 4 109 28 29 85 34 109 9z"/>
</g>
</svg>
